<svg width="21" height="20" viewBox="0 0 21 20" fill="none" xmlns="http://www.w3.org/2000/svg">
<path d="M16.7088 9.16675H5.04215C4.12168 9.16675 3.37549 9.91294 3.37549 10.8334V16.6667C3.37549 17.5872 4.12168 18.3334 5.04215 18.3334H16.7088C17.6293 18.3334 18.3755 17.5872 18.3755 16.6667V10.8334C18.3755 9.91294 17.6293 9.16675 16.7088 9.16675Z" stroke="#18181C" stroke-linecap="round" stroke-linejoin="round"/>
<path d="M6.70874 9.16675V5.83341C6.70874 4.72835 7.14773 3.66854 7.92913 2.88714C8.71053 2.10573 9.77034 1.66675 10.8754 1.66675C11.9805 1.66675 13.0403 2.10573 13.8217 2.88714C14.6031 3.66854 15.0421 4.72835 15.0421 5.83341V9.16675" stroke="#18181C" stroke-linecap="round" stroke-linejoin="round"/>
</svg>
